<svg width="828" height="149" viewBox="0 0 828 149" fill="none" xmlns="http://www.w3.org/2000/svg">
<path d="M0 145.5H93V124.932H21.2286V83.7878H88.9571V63.2122H21.2286V22.0683H93V1.5H0V145.5Z" fill="white"/>
<path d="M220.014 40.5C196.377 40.5 186.122 54.9459 186.122 54.9459H185.091C185.091 54.9459 177.88 40.5 157.343 40.5C140.866 40.5 130.597 52.8585 130.597 52.8585H129.573L127.518 42.5658H109V145.5H129.559V80.6451C129.559 68.2939 139.835 59.0269 152.165 59.0269C164.496 59.0269 172.724 67.261 172.724 80.6451V145.5H193.276V80.6451C193.276 68.2939 203.559 59.0269 215.89 59.0269C228.221 59.0269 236.441 67.261 236.441 80.6451V145.5H257V80.4429C257 56.9683 241.583 40.5 220.014 40.5Z" fill="white"/>
<rect x="270" y="43.5" width="21" height="101" fill="white"/>
<rect x="269" y="0.5" width="23" height="22" fill="white"/>
<path d="M334.611 14.5H314.275V42.9399H298V62.2372H314.275V123.172C314.275 136.376 322.41 144.5 336.644 144.5H358V126.222H340.711C336.644 126.222 334.611 124.191 334.611 120.129V62.2372H358V42.9399H334.611V14.5Z" fill="white"/>
<path d="M477.221 118.244H473.144L453.166 43.5H425.841L405.856 118.244H401.786L382.416 43.5H361L388.532 144.5H418.095L437.465 71.7831H441.542L460.912 144.5H490.475L518 43.5H496.591L477.221 118.244Z" fill="white"/>
<rect x="525" y="43.5" width="21" height="101" fill="white"/>
<rect x="523" y="0.5" width="23" height="22" fill="white"/>
<path d="M610.99 86.1934L592.352 83.0748C583.029 81.2095 576.816 76.8449 576.816 70.615C576.816 64.385 583.029 58.1551 597.533 58.1551C613.061 58.1551 619.281 66.4617 619.281 72.6916H639.99C639.99 61.2664 627.564 40.5 597.533 40.5C569.565 40.5 556.115 54.0018 556.115 70.615C556.115 88.2701 566.476 97.4073 586.154 100.73L604.792 103.849C616.185 105.714 620.327 110.078 620.327 117.35C620.327 123.58 614.114 130.852 598.579 130.852C582.012 130.852 574.76 121.504 574.76 115.274H554C554 126.692 565.394 148.5 598.535 148.5C627.535 148.5 641 133.927 641 117.35C641.029 99.6953 630.667 89.5161 610.99 86.1934Z" fill="white"/>
<path fill-rule="evenodd" clip-rule="evenodd" d="M644 94.5C644 62.3084 665.427 40.5 695.022 40.5C722.57 40.5 743.997 62.3084 743.997 91.4178C744.036 94.9069 743.693 98.3894 742.973 101.801H664.41C666.451 119.456 678.693 130.881 695.022 130.881C707.264 130.881 716.449 123.595 719.506 116.308H740.933C735.829 129.81 721.511 148.5 695.022 148.5C665.427 148.5 644 126.692 644 94.5ZM695.022 58.1551C677.705 58.1551 667.467 69.5803 664.41 86.1934H724.61C722.57 69.5803 711.345 58.1551 695.022 58.1551Z" fill="white"/>
<path d="M761.201 37.1781C761.216 30.0536 763.762 23.1552 768.404 17.661C768.996 16.9607 769.161 16.0051 768.836 15.1541C768.511 14.3031 767.747 13.686 766.83 13.5353C765.913 13.3846 764.984 13.7231 764.392 14.4234C757.32 22.7914 754.512 33.8413 756.757 44.4698C756.945 45.3599 757.604 46.0845 758.487 46.3706C759.37 46.6567 760.342 46.4609 761.037 45.8568C761.732 45.2528 762.045 44.3323 761.857 43.4422C761.422 41.3813 761.202 39.2825 761.201 37.1781Z" fill="white"/>
<path d="M779.682 10.2122C783.68 8.50712 787.997 7.63251 792.359 7.64389C797.506 7.64761 802.575 8.8681 807.134 11.2012C807.51 11.3987 807.93 11.5014 808.357 11.5C809.57 11.5062 810.63 10.7006 810.922 9.55026C811.215 8.39989 810.663 7.20356 809.588 6.65497C804.273 3.93007 798.361 2.50441 792.359 2.50009C787.272 2.4891 782.239 3.51151 777.578 5.50242C776.717 5.8697 776.122 6.65793 776.017 7.57019C775.912 8.48244 776.313 9.38013 777.069 9.9251C777.825 10.4701 778.821 10.5795 779.682 10.2122Z" fill="white"/>
<path d="M815.378 59.3702C809.134 66.4556 800.278 70.3249 791.116 69.9716C781.953 69.6182 773.389 65.0771 767.652 57.5296C767.066 56.7615 766.137 56.3815 765.214 56.5327C764.291 56.6839 763.514 57.3433 763.177 58.2625C762.839 59.1818 762.992 60.2212 763.578 60.9893C770.55 70.1834 781.112 75.5246 792.271 75.4999C802.486 75.4848 812.238 71.0025 819.206 63.12C819.899 62.4089 820.165 61.3525 819.898 60.372C819.63 59.3914 818.872 58.6462 817.927 58.4334C816.981 58.2206 816.001 58.5749 815.378 59.3549V59.3702Z" fill="white"/>
<path d="M821.496 16.4617C820.666 15.4065 819.157 15.1878 818.063 15.9643C816.968 16.7409 816.674 18.2402 817.392 19.3742C822.698 26.8996 824.32 36.4263 821.802 45.2877C821.423 46.6268 822.198 48.0207 823.534 48.4023C823.76 48.4695 823.994 48.5024 824.23 48.4999C825.351 48.4994 826.336 47.7544 826.643 46.6743C829.582 36.3431 827.692 25.2344 821.503 16.4617H821.496Z" fill="white"/>
<path fill-rule="evenodd" clip-rule="evenodd" d="M813.285 46.6139C809.801 55.0221 801.594 60.5029 792.492 60.5C780.077 60.4841 770.016 50.4232 770 38.0076C769.997 28.906 775.478 20.6991 783.886 17.2147C792.294 13.7304 801.974 15.6549 808.409 22.0907C814.845 28.5264 816.77 38.2057 813.285 46.6139ZM808.457 31.4065C805.781 24.9518 799.48 20.745 792.492 20.7479V20.7046C782.943 20.7205 775.214 28.4726 775.226 38.022C775.226 45.0094 779.435 51.3086 785.891 53.9819C792.347 56.6551 799.777 55.1759 804.717 50.2341C809.657 45.2922 811.133 37.8611 808.457 31.4065Z" fill="white"/>
</svg>
